<svg id="Layer_1" data-name="Layer 1" xmlns="http://www.w3.org/2000/svg" viewBox="0 0 305.95 26.14"><defs><style>.cls-1{fill:#4d1215;}.cls-2{fill:#3a1013;}</style></defs><path class="cls-1" d="M17.77,40.24V14.86h16.6v3.68h-12V25.7H33.61v3.67H22.38V40.24Z" transform="translate(-17.77 -14.47)"/><path class="cls-1" d="M43.69,40.6a5.8,5.8,0,0,1-4.62-1.71,7.4,7.4,0,0,1-1.5-5v-19h4.5v18.8c0,2.16.91,3.24,2.74,3.24.26,0,.53,0,.79,0a3.78,3.78,0,0,0,.76-.14l-.08,3.56A10.38,10.38,0,0,1,43.69,40.6Z" transform="translate(-17.77 -14.47)"/><path class="cls-1" d="M56.9,40.6a9.72,9.72,0,0,1-4.75-1.11A7.82,7.82,0,0,1,49,36.3a10.16,10.16,0,0,1-1.12-4.88A10.08,10.08,0,0,1,49,26.56a7.81,7.81,0,0,1,3.13-3.16,10.65,10.65,0,0,1,9.51,0,7.87,7.87,0,0,1,3.13,3.16,10.08,10.08,0,0,1,1.11,4.86,10.16,10.16,0,0,1-1.11,4.88,7.88,7.88,0,0,1-3.13,3.19A9.73,9.73,0,0,1,56.9,40.6Zm0-3.42a4,4,0,0,0,3.24-1.45,6.55,6.55,0,0,0,1.23-4.31,6.43,6.43,0,0,0-1.23-4.3,4.41,4.41,0,0,0-6.48,0,6.49,6.49,0,0,0-1.22,4.3,6.61,6.61,0,0,0,1.22,4.31A4,4,0,0,0,56.9,37.18Z" transform="translate(-17.77 -14.47)"/><path class="cls-1" d="M69.61,40.24V22.64H74v3.1q1.31-3.14,5.55-3.46l1.37-.11L81.2,26l-2.59.25q-4.42.44-4.43,4.54v9.46Z" transform="translate(-17.77 -14.47)"/><path class="cls-1" d="M92.11,40.6A11.15,11.15,0,0,1,87,39.49a8,8,0,0,1-3.33-3.17,9.66,9.66,0,0,1-1.17-4.86,9.72,9.72,0,0,1,1.14-4.79,8.28,8.28,0,0,1,3.13-3.22,8.83,8.83,0,0,1,4.55-1.17,7.64,7.64,0,0,1,5.93,2.38,9.22,9.22,0,0,1,2.17,6.48v1.33H86.78q.51,4.71,5.4,4.71a10.13,10.13,0,0,0,3-.45,8.15,8.15,0,0,0,2.7-1.42l1.26,3A9.68,9.68,0,0,1,95.93,40,12.44,12.44,0,0,1,92.11,40.6Zm-.65-15.26a4.33,4.33,0,0,0-3.2,1.22,5.45,5.45,0,0,0-1.48,3.32h8.86a5.4,5.4,0,0,0-1.21-3.37A3.8,3.8,0,0,0,91.46,25.34Z" transform="translate(-17.77 -14.47)"/><path class="cls-1" d="M103,40.24V22.64h4.39v2.74a6,6,0,0,1,2.43-2.31,7.33,7.33,0,0,1,3.44-.79q6.23,0,6.23,7.24V40.24h-4.5V29.73a4.65,4.65,0,0,0-.78-3,2.93,2.93,0,0,0-2.39-.93,4.11,4.11,0,0,0-3.15,1.24,4.61,4.61,0,0,0-1.17,3.29v9.9Z" transform="translate(-17.77 -14.47)"/><path class="cls-1" d="M132.07,40.6q-7,0-7-6.91V26H121.7V22.64h3.39V17.38h4.5v5.26h5.32V26h-5.32v7.42a3.85,3.85,0,0,0,.75,2.59,3.1,3.1,0,0,0,2.45.87,4.7,4.7,0,0,0,1-.13L135,36.5l.69,3.31a6.37,6.37,0,0,1-1.64.58A9.34,9.34,0,0,1,132.07,40.6Z" transform="translate(-17.77 -14.47)"/><path class="cls-1" d="M137.54,18.86V14.47h5v4.39Zm.29,21.38V22.64h4.5v17.6Z" transform="translate(-17.77 -14.47)"/><path class="cls-1" d="M147,40.24V22.64h4.39v2.74a6,6,0,0,1,2.43-2.31,7.36,7.36,0,0,1,3.44-.79q6.22,0,6.23,7.24V40.24H159V29.73a4.65,4.65,0,0,0-.78-3,2.92,2.92,0,0,0-2.39-.93,4.11,4.11,0,0,0-3.15,1.24,4.61,4.61,0,0,0-1.17,3.29v9.9Z" transform="translate(-17.77 -14.47)"/><path class="cls-2" d="M167.63,40.24V14.86h10.15a9.4,9.4,0,0,1,6.07,1.75A5.93,5.93,0,0,1,186,21.49a5.85,5.85,0,0,1-1.08,3.56,6.11,6.11,0,0,1-3,2.16,6.35,6.35,0,0,1,3.44,2.13,6.05,6.05,0,0,1,1.24,3.92,6.31,6.31,0,0,1-2.19,5.18,9.54,9.54,0,0,1-6.2,1.8Zm2.88-14h6.84c3.82,0,5.72-1.48,5.72-4.46s-1.9-4.5-5.72-4.5h-6.84Zm0,11.67h7.42q5.76,0,5.76-4.65t-5.76-4.64h-7.42Z" transform="translate(-17.77 -14.47)"/><path class="cls-2" d="M197.76,40.57q-6.3,0-6.3-7V22.75h2.92V33.58a5.26,5.26,0,0,0,1,3.46,3.77,3.77,0,0,0,3,1.12,4.73,4.73,0,0,0,3.63-1.5,5.55,5.55,0,0,0,1.41-4V22.75h2.91V40.24h-2.84v-3a5.79,5.79,0,0,1-2.32,2.43A6.67,6.67,0,0,1,197.76,40.57Zm-3.49-22.29V15.19h3.13v3.09Zm6.23,0V15.19h3.13v3.09Z" transform="translate(-17.77 -14.47)"/><path class="cls-2" d="M211.77,40.24V22.75h2.84v3.13c.94-2.11,2.86-3.28,5.76-3.49l1-.11.22,2.52-1.84.22A5.73,5.73,0,0,0,216,26.58a5.12,5.12,0,0,0-1.29,3.69v10Z" transform="translate(-17.77 -14.47)"/><path class="cls-2" d="M230.88,40.24l-7.52-17.49h3.17l5.79,14.18,5.87-14.18h3l-7.56,17.49Z" transform="translate(-17.77 -14.47)"/><path class="cls-2" d="M251.91,40.57a8.82,8.82,0,0,1-6.56-2.43,9,9,0,0,1-2.41-6.61A10.16,10.16,0,0,1,244,26.76a7.86,7.86,0,0,1,3-3.2,8.31,8.31,0,0,1,4.38-1.14A7.09,7.09,0,0,1,257,24.71,9.18,9.18,0,0,1,259,31v1.12H245.79a6.58,6.58,0,0,0,1.72,4.55,6,6,0,0,0,4.4,1.57,9.24,9.24,0,0,0,3-.49,8.29,8.29,0,0,0,2.74-1.6l1,2a8.18,8.18,0,0,1-3,1.75A11.43,11.43,0,0,1,251.91,40.57Zm-.47-16a5.11,5.11,0,0,0-3.93,1.55,6.81,6.81,0,0,0-1.69,4.07h10.62a6.53,6.53,0,0,0-1.38-4.14A4.56,4.56,0,0,0,251.44,24.58Z" transform="translate(-17.77 -14.47)"/><path class="cls-2" d="M263.17,40.24V22.75H266v3a5.67,5.67,0,0,1,2.45-2.49,7.57,7.57,0,0,1,3.56-.83q6.23,0,6.23,6.92v10.9h-2.92V29.52a5.57,5.57,0,0,0-.95-3.59,3.78,3.78,0,0,0-3-1.13,5.08,5.08,0,0,0-3.84,1.49,5.54,5.54,0,0,0-1.42,4v10Z" transform="translate(-17.77 -14.47)"/><path class="cls-2" d="M283.26,18.39V15.12h3.6v3.27Zm.36,21.85V22.75h2.92V40.24Z" transform="translate(-17.77 -14.47)"/><path class="cls-2" d="M299.39,40.57a8.72,8.72,0,0,1-4.54-1.14,7.45,7.45,0,0,1-2.93-3.2,10.82,10.82,0,0,1-1-4.84,9.17,9.17,0,0,1,2.27-6.57,8.16,8.16,0,0,1,6.23-2.4,9.37,9.37,0,0,1,3.2.58,6.9,6.9,0,0,1,2.63,1.62l-1,2.12a6.55,6.55,0,0,0-2.28-1.47,6.78,6.78,0,0,0-2.36-.47,5.26,5.26,0,0,0-4.21,1.71,7.28,7.28,0,0,0-1.48,4.91,7.59,7.59,0,0,0,1.48,4.95,5.09,5.09,0,0,0,4.21,1.82,6.56,6.56,0,0,0,2.36-.47,6.27,6.27,0,0,0,2.28-1.51l1,2.13A7.21,7.21,0,0,1,302.58,40,9,9,0,0,1,299.39,40.57Z" transform="translate(-17.77 -14.47)"/><path class="cls-2" d="M308.64,40.24V14.86h2.92V25.63a5.63,5.63,0,0,1,2.43-2.4,7.5,7.5,0,0,1,3.51-.81q6.22,0,6.23,6.92v10.9h-2.92V29.52a5.5,5.5,0,0,0-1-3.59,3.77,3.77,0,0,0-3-1.13A5.05,5.05,0,0,0,313,26.29a5.54,5.54,0,0,0-1.42,4v10Z" transform="translate(-17.77 -14.47)"/></svg>