<svg id="Layer_1" data-name="Layer 1"
    xmlns="http://www.w3.org/2000/svg" viewBox="0 0 206.45 17.42">
    <defs>
        <style>.cls-1{fill:#4d1215;}.cls-2{fill:#3a1013;}</style>
    </defs>
    <path class="cls-1" d="M9,26.49V9.57H20V12H12V16.8h7.49v2.45H12v7.24Z" transform="translate(-8.96 -9.31)"/>
    <path class="cls-1" d="M26.24,26.73a3.89,3.89,0,0,1-3.09-1.14,5,5,0,0,1-1-3.34V9.57h3V22.1c0,1.44.6,2.16,1.82,2.16l.53,0a2.77,2.77,0,0,0,.5-.1L28,26.52A7.23,7.23,0,0,1,26.24,26.73Z" transform="translate(-8.96 -9.31)"/>
    <path class="cls-1" d="M35,26.73A6.36,6.36,0,0,1,31.88,26a5.14,5.14,0,0,1-2.09-2.12A6.74,6.74,0,0,1,29,20.61a6.68,6.68,0,0,1,.75-3.24,5.18,5.18,0,0,1,2.09-2.11,7.14,7.14,0,0,1,6.33,0,5.24,5.24,0,0,1,2.09,2.11A6.68,6.68,0,0,1,41,20.61a6.73,6.73,0,0,1-.74,3.26A5.2,5.2,0,0,1,38.21,26,6.38,6.38,0,0,1,35,26.73Zm0-2.28a2.66,2.66,0,0,0,2.16-1A4.33,4.33,0,0,0,38,20.61a4.25,4.25,0,0,0-.82-2.86A2.68,2.68,0,0,0,35,16.8a2.7,2.7,0,0,0-2.16.95,4.3,4.3,0,0,0-.81,2.86,4.39,4.39,0,0,0,.81,2.87A2.69,2.69,0,0,0,35,24.45Z" transform="translate(-8.96 -9.31)"/>
    <path class="cls-1" d="M43.52,26.49V14.76h2.92v2.06a3.92,3.92,0,0,1,3.7-2.3l.91-.07L51.24,17l-1.72.17c-2,.19-3,1.2-3,3v6.31Z" transform="translate(-8.96 -9.31)"/>
    <path class="cls-1" d="M58.52,26.73A7.37,7.37,0,0,1,55.08,26a5.32,5.32,0,0,1-2.22-2.11,6.42,6.42,0,0,1-.78-3.24,6.51,6.51,0,0,1,.76-3.19,5.47,5.47,0,0,1,2.09-2.15,5.89,5.89,0,0,1,3-.78,5.11,5.11,0,0,1,3.95,1.58,6.15,6.15,0,0,1,1.45,4.32v.89H55c.23,2.1,1.43,3.14,3.6,3.14a6.68,6.68,0,0,0,2-.3,5.35,5.35,0,0,0,1.8-.94l.84,2a6.29,6.29,0,0,1-2.11,1.11A8.36,8.36,0,0,1,58.52,26.73Zm-.44-10.17a2.88,2.88,0,0,0-2.13.81,3.66,3.66,0,0,0-1,2.21h5.91a3.59,3.59,0,0,0-.81-2.24A2.53,2.53,0,0,0,58.08,16.56Z" transform="translate(-8.96 -9.31)"/>
    <path class="cls-1" d="M65.74,26.49V14.76h2.93v1.82a4,4,0,0,1,1.62-1.53,4.8,4.8,0,0,1,2.29-.53q4.15,0,4.15,4.82v7.15h-3v-7a3.16,3.16,0,0,0-.51-2,2,2,0,0,0-1.6-.62,2.76,2.76,0,0,0-2.1.83,3.06,3.06,0,0,0-.78,2.19v6.6Z" transform="translate(-8.96 -9.31)"/>
    <path class="cls-1" d="M85.16,26.73q-4.66,0-4.66-4.6V17H78.24V14.76H80.5V11.25h3v3.51h3.55V17H83.5V22a2.61,2.61,0,0,0,.5,1.73,2.09,2.09,0,0,0,1.64.57,3.4,3.4,0,0,0,.69-.08l.75-.18.45,2.21a4.18,4.18,0,0,1-1.09.38A5.76,5.76,0,0,1,85.16,26.73Z" transform="translate(-8.96 -9.31)"/>
    <path class="cls-1" d="M88.8,12.24V9.31h3.36v2.93ZM89,26.49V14.76h3V26.49Z" transform="translate(-8.96 -9.31)"/>
    <path class="cls-1" d="M95.12,26.49V14.76H98v1.82a4,4,0,0,1,1.62-1.53,4.84,4.84,0,0,1,2.3-.53c2.76,0,4.15,1.61,4.15,4.82v7.15h-3v-7a3.09,3.09,0,0,0-.52-2,2,2,0,0,0-1.59-.62,2.76,2.76,0,0,0-2.1.83,3.06,3.06,0,0,0-.78,2.19v6.6Z" transform="translate(-8.96 -9.31)"/>
    <path class="cls-2" d="M111.34,26.49V9.57h6.77a6.24,6.24,0,0,1,4,1.17A4,4,0,0,1,123.58,14a3.93,3.93,0,0,1-.72,2.38,4.17,4.17,0,0,1-2,1.44,4.12,4.12,0,0,1,2.29,1.41,4,4,0,0,1,.83,2.62,4.22,4.22,0,0,1-1.46,3.45,6.35,6.35,0,0,1-4.13,1.2Zm1.92-9.36h4.56q3.83,0,3.82-3t-3.82-3h-4.56Zm0,7.78h4.95q3.84,0,3.84-3.1t-3.84-3.09h-4.95Z" transform="translate(-8.96 -9.31)"/>
    <path class="cls-2" d="M131.43,26.71q-4.2,0-4.2-4.63V14.83h2v7.22a3.54,3.54,0,0,0,.63,2.31,2.53,2.53,0,0,0,2,.74,3.17,3.17,0,0,0,2.42-1,3.76,3.76,0,0,0,.94-2.66V14.83h1.94V26.49h-1.9v-2a3.88,3.88,0,0,1-1.54,1.62A4.58,4.58,0,0,1,131.43,26.71ZM129.1,11.85V9.79h2.09v2.06Zm4.16,0V9.79h2.08v2.06Z" transform="translate(-8.96 -9.31)"/>
    <path class="cls-2" d="M140.77,26.49V14.83h1.89v2.09a4.13,4.13,0,0,1,3.84-2.33l.7-.07.14,1.68-1.22.14a3.86,3.86,0,0,0-2.52,1.05,3.39,3.39,0,0,0-.86,2.46v6.64Z" transform="translate(-8.96 -9.31)"/>
    <path class="cls-2" d="M153.51,26.49l-5-11.66h2.11l3.86,9.46,3.91-9.46h2l-5,11.66Z" transform="translate(-8.96 -9.31)"/>
    <path class="cls-2" d="M167.53,26.71a5.88,5.88,0,0,1-4.37-1.62,6,6,0,0,1-1.61-4.4,6.78,6.78,0,0,1,.72-3.18,5.26,5.26,0,0,1,2-2.14,5.6,5.6,0,0,1,2.92-.76,4.7,4.7,0,0,1,3.72,1.53,6.13,6.13,0,0,1,1.34,4.19v.74h-8.78a4.37,4.37,0,0,0,1.15,3,4,4,0,0,0,2.93,1,6.41,6.41,0,0,0,2-.32,5.73,5.73,0,0,0,1.83-1.07l.67,1.37a5.59,5.59,0,0,1-2,1.16A7.57,7.57,0,0,1,167.53,26.71Zm-.32-10.66a3.39,3.39,0,0,0-2.61,1,4.48,4.48,0,0,0-1.13,2.71h7.08a4.34,4.34,0,0,0-.92-2.76A3,3,0,0,0,167.21,16.05Z" transform="translate(-8.96 -9.31)"/>
    <path class="cls-2" d="M175,26.49V14.83h1.9v2a3.72,3.72,0,0,1,1.63-1.65,5,5,0,0,1,2.37-.56q4.16,0,4.16,4.61v7.27h-1.95V19.34a3.71,3.71,0,0,0-.63-2.39,2.53,2.53,0,0,0-2-.75,3.38,3.38,0,0,0-2.56,1,3.72,3.72,0,0,0-1,2.66v6.64Z" transform="translate(-8.96 -9.31)"/>
    <path class="cls-2" d="M188.43,11.93V9.74h2.4v2.19Zm.24,14.56V14.83h2V26.49Z" transform="translate(-8.96 -9.31)"/>
    <path class="cls-2" d="M199.18,26.71a5.77,5.77,0,0,1-3-.76,5,5,0,0,1-2-2.13,7.28,7.28,0,0,1-.68-3.23A6.09,6.09,0,0,1,195,16.21a5.46,5.46,0,0,1,4.15-1.6,6.13,6.13,0,0,1,2.14.39,4.55,4.55,0,0,1,1.75,1.08l-.67,1.41a4.55,4.55,0,0,0-1.52-1,4.47,4.47,0,0,0-1.58-.31,3.49,3.49,0,0,0-2.8,1.14,4.84,4.84,0,0,0-1,3.27,5,5,0,0,0,1,3.3,3.39,3.39,0,0,0,2.8,1.22,4.49,4.49,0,0,0,1.58-.32,4.18,4.18,0,0,0,1.52-1l.67,1.41a4.66,4.66,0,0,1-1.76,1.09A6,6,0,0,1,199.18,26.71Z" transform="translate(-8.96 -9.31)"/>
    <path class="cls-2" d="M205.35,26.49V9.57h1.94v7.18a3.87,3.87,0,0,1,1.63-1.6,5,5,0,0,1,2.34-.54c2.76,0,4.15,1.54,4.15,4.61v7.27h-1.95V19.34a3.71,3.71,0,0,0-.63-2.39,2.53,2.53,0,0,0-2-.75,3.4,3.4,0,0,0-2.56,1,3.72,3.72,0,0,0-1,2.66v6.64Z" transform="translate(-8.96 -9.31)"/>
</svg>